<svg id="visual" viewBox="0 0 900 600" width="900" height="600" xmlns="http://www.w3.org/2000/svg" xmlns:xlink="http://www.w3.org/1999/xlink" version="1.1"><rect x="0" y="0" width="900" height="600" fill="#FFFFFF"></rect><path d="M0 531L15 538.8C30 546.7 60 562.3 90 567.8C120 573.3 150 568.7 180 568C210 567.3 240 570.7 270 549.7C300 528.7 330 483.3 360 458.7C390 434 420 430 450 434.7C480 439.3 510 452.7 540 470.3C570 488 600 510 630 505C660 500 690 468 720 475C750 482 780 528 810 553.5C840 579 870 584 885 586.5L900 589" fill="none" stroke-linecap="round" stroke-linejoin="miter" stroke="#001122" stroke-width="40"></path></svg>