<svg id="visual" viewBox="0 0 900 600" width="900" height="600" xmlns="http://www.w3.org/2000/svg" xmlns:xlink="http://www.w3.org/1999/xlink" version="1.1"><rect x="0" y="0" width="900" height="600" fill="#FFFFFF"></rect><path d="M0 217L16.7 218.5C33.3 220 66.7 223 100 264.3C133.3 305.7 166.7 385.3 200 425.3C233.3 465.3 266.7 465.7 300 451.8C333.3 438 366.7 410 400 365.7C433.3 321.3 466.7 260.7 500 241C533.3 221.3 566.7 242.7 600 296.7C633.3 350.7 666.7 437.3 700 449.5C733.3 461.7 766.7 399.3 800 344.3C833.3 289.3 866.7 241.7 883.3 217.8L900 194" fill="none" stroke-linecap="round" stroke-linejoin="miter" stroke="#001122" stroke-width="14"></path></svg>