<svg id="visual" viewBox="0 0 900 600" width="900" height="600" xmlns="http://www.w3.org/2000/svg" xmlns:xlink="http://www.w3.org/1999/xlink" version="1.1"><rect x="0" y="0" width="900" height="600" fill="#FFFFFF"></rect><path d="M0 440L15 456.2C30 472.3 60 504.7 90 519.3C120 534 150 531 180 521.8C210 512.7 240 497.3 270 500.8C300 504.3 330 526.7 360 533.2C390 539.7 420 530.3 450 519.3C480 508.3 510 495.7 540 481.3C570 467 600 451 630 469.5C660 488 690 541 720 562.3C750 583.7 780 573.3 810 573C840 572.7 870 582.3 885 587.2L900 592" fill="none" stroke-linecap="round" stroke-linejoin="miter" stroke="#001122" stroke-width="40"></path></svg>